# xmcd
#
# Track frame offsets: 
#        150
#        7871
#        26170
#        46860
#        68698
#        73275
#        93152
#        116644
#        131643
#        146268
#        160001
#        163634
#        181643
#        200528
#        214736
#        228626
#
# Disc length: 3275 seconds
#
# Revision: 0
# Processed by: cddbd v1.5.2PL0 Copyright (c) Steve Scherf et al.
# Submitted via: ExactAudioCopyFreeDBPlugin 1.0
#
DISCID=d40cc910
DTITLE=Pimp C - Long Live the Pimp
DYEAR=2015
DGENRE=Hip-Hop
TTITLE0=Long Live the Pimp
TTITLE1=3-Way Freak (feat. Lil Wayne)
TTITLE2=Ain't Said Shit (feat. Ty Dolla $ign and Devin the Dude)
TTITLE3=Wavybone (feat. A$AP Rocky, Juicy J, and Bun B)
TTITLE4=Spittin' Game (Interlude)
TTITLE5=Trill (feat. A'Doni, Slim Thug, E.S.G., and Lil Keke)
TTITLE6=Bitch Get Down (feat. Bun B, 8Ball and MJG)
TTITLE7=Payday (feat. Juicy J)
TTITLE8=Slab Music (feat. Lil Keke)
TTITLE9=True to the Game (feat. David Banner)
TTITLE10=Triflin' Hoe (Interlude)
TTITLE11=To Lose a Whore
TTITLE12=Friends (feat. Juicy J and Nas)
TTITLE13=Southside
TTITLE14=Country Thang (Outro)
TTITLE15=Twerk Something (feat. T.I.)
EXTD=
EXTT0=
EXTT1=
EXTT2=
EXTT3=
EXTT4=
EXTT5=
EXTT6=
EXTT7=
EXTT8=
EXTT9=
EXTT10=
EXTT11=
EXTT12=
EXTT13=
EXTT14=
EXTT15=
PLAYORDER=
